<?xml version="1.0" encoding="utf-8"?>
<!-- Generator: Adobe Illustrator 24.1.2, SVG Export Plug-In . SVG Version: 6.00 Build 0)  -->
<svg version="1.1" id="Layer_1" xmlns="http://www.w3.org/2000/svg" xmlns:xlink="http://www.w3.org/1999/xlink" x="0px" y="0px"
	 viewBox="0 0 339 339" style="enable-background:new 0 0 339 339;" xml:space="preserve">
<style type="text/css">
	.st0{fill:none;stroke:url(#SVGID_1_);stroke-width:5;stroke-miterlimit:10;}
	.st1{fill:none;stroke:url(#SVGID_2_);stroke-width:5;stroke-miterlimit:10;}
	.st2{fill:none;stroke:url(#SVGID_3_);stroke-width:5;stroke-miterlimit:10;}
	.st3{fill:none;stroke:url(#SVGID_4_);stroke-width:5;stroke-miterlimit:10;}
	.st4{fill:none;stroke:url(#SVGID_5_);stroke-width:5;stroke-miterlimit:10;}
	.st5{fill:none;stroke:url(#SVGID_6_);stroke-width:5;stroke-miterlimit:10;}
	.st6{fill:none;stroke:url(#SVGID_7_);stroke-width:5;stroke-miterlimit:10;}
	.st7{fill:none;stroke:url(#SVGID_8_);stroke-width:5;stroke-miterlimit:10;}
	.st8{fill:none;stroke:url(#SVGID_9_);stroke-width:5;stroke-miterlimit:10;}
	.st9{fill:none;stroke:url(#SVGID_10_);stroke-width:5;stroke-miterlimit:10;}
	.st10{fill:none;stroke:url(#SVGID_11_);stroke-width:5;stroke-miterlimit:10;}
	.st11{fill:url(#SVGID_12_);}
	.st12{fill:url(#SVGID_13_);}
	.st13{fill:url(#SVGID_14_);}
	.st14{fill:url(#SVGID_15_);}
	.st15{fill:url(#SVGID_16_);}
	.st16{fill:none;stroke:url(#SVGID_17_);stroke-width:5;stroke-miterlimit:10;}
	.st17{fill:none;stroke:url(#SVGID_18_);stroke-width:5;stroke-miterlimit:10;}
	.st18{fill:none;stroke:url(#SVGID_19_);stroke-width:5;stroke-miterlimit:10;}
	.st19{fill:none;stroke:url(#SVGID_20_);stroke-width:5;stroke-miterlimit:10;}
</style>
<linearGradient id="SVGID_1_" gradientUnits="userSpaceOnUse" x1="214.5383" y1="128.2608" x2="219.5383" y2="128.2608">
	<stop  offset="0" style="stop-color:#A07B46"/>
	<stop  offset="0.5531" style="stop-color:#FDAC42"/>
	<stop  offset="0.9659" style="stop-color:#A67532"/>
</linearGradient>
<path class="st0" d="M217.04,103.99c0,11.36,0,30.89,0,48.54"/>
<linearGradient id="SVGID_2_" gradientUnits="userSpaceOnUse" x1="120.5383" y1="170.3903" x2="219.5383" y2="170.3903">
	<stop  offset="0" style="stop-color:#A07B46"/>
	<stop  offset="0.5531" style="stop-color:#FDAC42"/>
	<stop  offset="0.9659" style="stop-color:#A67532"/>
</linearGradient>
<path class="st1" d="M217.04,179.85c0,6.61,0,10.79,0,10.79c0,24.12-19.55,43.67-43.67,43.67c-27.8,0-50.33-22.53-50.33-50.33
	c0,0,0-56.82,0-80"/>
<linearGradient id="SVGID_3_" gradientUnits="userSpaceOnUse" x1="222.5383" y1="127.8115" x2="227.5383" y2="127.8115">
	<stop  offset="0" style="stop-color:#A07B46"/>
	<stop  offset="0.5531" style="stop-color:#FDAC42"/>
	<stop  offset="0.9659" style="stop-color:#A67532"/>
</linearGradient>
<path class="st2" d="M225.04,103.98c0,5.75,0,27.27,0,47.65"/>
<linearGradient id="SVGID_4_" gradientUnits="userSpaceOnUse" x1="112.5383" y1="174.9864" x2="227.5383" y2="174.9864">
	<stop  offset="0" style="stop-color:#A07B46"/>
	<stop  offset="0.5531" style="stop-color:#FDAC42"/>
	<stop  offset="0.9659" style="stop-color:#A67532"/>
</linearGradient>
<path class="st3" d="M225.04,181c0,6.99,0,11.5,0,11.5c0,28.17-22.83,51-51,51c-32.58,0-59-26.42-59-59c0,0,0-69.48,0-80.53"/>
<linearGradient id="SVGID_5_" gradientUnits="userSpaceOnUse" x1="206.5383" y1="127.9415" x2="211.5383" y2="127.9415">
	<stop  offset="0" style="stop-color:#A07B46"/>
	<stop  offset="0.5531" style="stop-color:#FDAC42"/>
	<stop  offset="0.9659" style="stop-color:#A67532"/>
</linearGradient>
<path class="st4" d="M209.04,103.99c0,13.02,0,31.52,0,47.9"/>
<linearGradient id="SVGID_6_" gradientUnits="userSpaceOnUse" x1="128.5383" y1="165.7899" x2="211.5383" y2="165.7899">
	<stop  offset="0" style="stop-color:#A07B46"/>
	<stop  offset="0.5531" style="stop-color:#FDAC42"/>
	<stop  offset="0.9659" style="stop-color:#A67532"/>
</linearGradient>
<path class="st5" d="M209.04,181.51c0,4.5,0,7.19,0,7.19c0,20.11-16.3,36.41-36.41,36.41c-22.97,0-41.59-18.62-41.59-41.59
	c0,0,0-51.91,0-79.55"/>
<linearGradient id="SVGID_7_" gradientUnits="userSpaceOnUse" x1="198.5383" y1="128.0692" x2="203.5383" y2="128.0692">
	<stop  offset="0" style="stop-color:#A07B46"/>
	<stop  offset="0.5531" style="stop-color:#FDAC42"/>
	<stop  offset="0.9659" style="stop-color:#A67532"/>
</linearGradient>
<path class="st6" d="M201.04,103.99c0,14.21,0,32.43,0,48.16"/>
<linearGradient id="SVGID_8_" gradientUnits="userSpaceOnUse" x1="136.5383" y1="161.1875" x2="203.5383" y2="161.1875">
	<stop  offset="0" style="stop-color:#A07B46"/>
	<stop  offset="0.5531" style="stop-color:#FDAC42"/>
	<stop  offset="0.9659" style="stop-color:#A67532"/>
</linearGradient>
<path class="st7" d="M201.04,181.09c0,3.59,0,5.68,0,5.68c0,16.1-13.05,29.15-29.15,29.15c-18.14,0-32.85-14.71-32.85-32.85
	c0,0,0-48.63,0-79.11"/>
<linearGradient id="SVGID_9_" gradientUnits="userSpaceOnUse" x1="190.5383" y1="127.6383" x2="195.5383" y2="127.6383">
	<stop  offset="0" style="stop-color:#A07B46"/>
	<stop  offset="0.5531" style="stop-color:#FDAC42"/>
	<stop  offset="0.9659" style="stop-color:#A67532"/>
</linearGradient>
<path class="st8" d="M193.04,103.98c0,14.99,0,32.45,0,47.32"/>
<linearGradient id="SVGID_10_" gradientUnits="userSpaceOnUse" x1="144.5383" y1="156.5745" x2="195.5383" y2="156.5745">
	<stop  offset="0" style="stop-color:#A07B46"/>
	<stop  offset="0.5531" style="stop-color:#FDAC42"/>
	<stop  offset="0.9659" style="stop-color:#A67532"/>
</linearGradient>
<path class="st9" d="M193.04,181.43c0,2.35,0,3.67,0,3.67c0,11.94-9.68,21.63-21.63,21.63c-13.46,0-24.37-10.91-24.37-24.37
	c0,0,0-45.16,0-78.42"/>
<g>
	<linearGradient id="SVGID_11_" gradientUnits="userSpaceOnUse" x1="171" y1="152.5" x2="285.5" y2="152.5">
		<stop  offset="0" style="stop-color:#A07B46"/>
		<stop  offset="0.5531" style="stop-color:#FDAC42"/>
		<stop  offset="0.9659" style="stop-color:#A67532"/>
	</linearGradient>
	<line class="st10" x1="171" y1="152.5" x2="285.5" y2="152.5"/>
</g>
<g>
	<linearGradient id="SVGID_12_" gradientUnits="userSpaceOnUse" x1="12.5381" y1="166.5" x2="327.5381" y2="166.5">
		<stop  offset="0" style="stop-color:#A07B46"/>
		<stop  offset="0.5754" style="stop-color:#FDAC42"/>
		<stop  offset="0.9704" style="stop-color:#A67532"/>
	</linearGradient>
	<path class="st11" d="M321.65,150.02c0.58,5.41,0.88,10.91,0.88,16.48c0,84.09-68.41,152.5-152.5,152.5s-152.5-68.41-152.5-152.5
		S85.95,14,170.04,14c61.83,0,115.18,36.98,139.09,89.99l5.45-0.01C290.34,48.15,234.68,9,170.04,9C83.19,9,12.54,79.65,12.54,166.5
		S83.19,324,170.04,324s157.5-70.65,157.5-157.5c0-5.56-0.29-11.06-0.86-16.48H321.65z"/>
</g>
<g>
	<linearGradient id="SVGID_13_" gradientUnits="userSpaceOnUse" x1="22.5381" y1="165.5" x2="317.5381" y2="165.5">
		<stop  offset="0" style="stop-color:#A07B46"/>
		<stop  offset="0.5531" style="stop-color:#FDAC42"/>
		<stop  offset="0.9659" style="stop-color:#A67532"/>
	</linearGradient>
	<path class="st12" d="M311.69,150.02c0.55,5.09,0.84,10.25,0.84,15.48c0,78.58-63.92,142.5-142.5,142.5
		c-78.57,0-142.5-63.92-142.5-142.5C27.54,86.93,91.46,23,170.04,23c56.57,0,105.54,33.13,128.53,81.01l5.52-0.01
		c-23.36-50.71-74.66-86-134.05-86c-81.33,0-147.5,66.17-147.5,147.5S88.71,313,170.04,313s147.5-66.17,147.5-147.5
		c0-5.23-0.28-10.39-0.82-15.48H311.69z"/>
</g>
<g>
	<linearGradient id="SVGID_14_" gradientUnits="userSpaceOnUse" x1="32.5381" y1="165.75" x2="307.5381" y2="165.75">
		<stop  offset="0" style="stop-color:#A07B46"/>
		<stop  offset="0.5441" style="stop-color:#FDAC42"/>
		<stop  offset="0.9883" style="stop-color:#A67532"/>
	</linearGradient>
	<path class="st13" d="M301.6,150.02c0.61,5.16,0.94,10.41,0.94,15.73c0,73.06-59.44,132.5-132.5,132.5s-132.5-59.44-132.5-132.5
		s59.44-132.5,132.5-132.5c50.78,0,94.98,28.72,117.21,70.77l5.62-0.01c-22.66-44.9-69.21-75.76-122.84-75.76
		c-75.82,0-137.5,61.68-137.5,137.5c0,75.82,61.68,137.5,137.5,137.5c75.82,0,137.5-61.68,137.5-137.5c0-5.32-0.31-10.57-0.9-15.73
		H301.6z"/>
</g>
<g>
	<linearGradient id="SVGID_15_" gradientUnits="userSpaceOnUse" x1="42.5381" y1="166" x2="297.5381" y2="166">
		<stop  offset="0" style="stop-color:#A07B46"/>
		<stop  offset="0.4994" style="stop-color:#FDAC42"/>
		<stop  offset="1" style="stop-color:#A67532"/>
	</linearGradient>
	<path class="st14" d="M291.49,150.02c0.69,5.23,1.05,10.56,1.05,15.98c0,67.55-54.95,122.5-122.5,122.5S47.54,233.55,47.54,166
		s54.95-122.5,122.5-122.5c44.96,0,84.32,24.35,105.64,60.54l5.76-0.01C259.62,64.97,217.86,38.5,170.04,38.5
		c-70.3,0-127.5,57.2-127.5,127.5s57.2,127.5,127.5,127.5s127.5-57.2,127.5-127.5c0-5.41-0.35-10.74-1.01-15.98H291.49z"/>
</g>
<g>
	<linearGradient id="SVGID_16_" gradientUnits="userSpaceOnUse" x1="52.5381" y1="166.25" x2="287.5381" y2="166.25">
		<stop  offset="0" style="stop-color:#A07B46"/>
		<stop  offset="0.562" style="stop-color:#FDAC42"/>
		<stop  offset="0.9704" style="stop-color:#A67532"/>
	</linearGradient>
	<path class="st15" d="M281.36,150.02c0.77,5.3,1.18,10.72,1.18,16.23c0,62.03-50.47,112.5-112.5,112.5
		c-62.03,0-112.5-50.47-112.5-112.5c0-62.03,50.47-112.5,112.5-112.5c39.06,0,73.52,20.01,93.7,50.31l5.94-0.01
		c-20.79-33.18-57.68-55.3-99.64-55.3c-64.79,0-117.5,52.71-117.5,117.5c0,64.79,52.71,117.5,117.5,117.5
		c64.79,0,117.5-52.71,117.5-117.5c0-5.51-0.39-10.92-1.13-16.23H281.36z"/>
</g>
<g>
</g>
<g>
	<linearGradient id="SVGID_17_" gradientUnits="userSpaceOnUse" x1="171" y1="159.4069" x2="286.8298" y2="159.4069">
		<stop  offset="0" style="stop-color:#A07B46"/>
		<stop  offset="0.5531" style="stop-color:#FDAC42"/>
		<stop  offset="0.9659" style="stop-color:#A67532"/>
	</linearGradient>
	<line class="st16" x1="171" y1="159.41" x2="286.83" y2="159.41"/>
</g>
<g>
	<linearGradient id="SVGID_18_" gradientUnits="userSpaceOnUse" x1="171" y1="166.3138" x2="286.8298" y2="166.3138">
		<stop  offset="0" style="stop-color:#A07B46"/>
		<stop  offset="0.5531" style="stop-color:#FDAC42"/>
		<stop  offset="0.9659" style="stop-color:#A67532"/>
	</linearGradient>
	<line class="st17" x1="171" y1="166.31" x2="286.83" y2="166.31"/>
</g>
<g>
	<linearGradient id="SVGID_19_" gradientUnits="userSpaceOnUse" x1="171" y1="173.2207" x2="286.8298" y2="173.2207">
		<stop  offset="0" style="stop-color:#A07B46"/>
		<stop  offset="0.5531" style="stop-color:#FDAC42"/>
		<stop  offset="0.9659" style="stop-color:#A67532"/>
	</linearGradient>
	<line class="st18" x1="171" y1="173.22" x2="286.83" y2="173.22"/>
</g>
<g>
	<linearGradient id="SVGID_20_" gradientUnits="userSpaceOnUse" x1="171" y1="180.1277" x2="285.3298" y2="180.1277">
		<stop  offset="0" style="stop-color:#A07B46"/>
		<stop  offset="0.5531" style="stop-color:#FDAC42"/>
		<stop  offset="0.9659" style="stop-color:#A67532"/>
	</linearGradient>
	<line class="st19" x1="171" y1="180.13" x2="285.33" y2="180.13"/>
</g>
</svg>
